<?xml version="1.0" encoding="UTF-8"?>
<svg id="Layer_1" data-name="Layer 1" xmlns="http://www.w3.org/2000/svg" viewBox="0 0 187.22 19.85">
  <defs>
    <style>
      .cls-1 {
        fill: #41464b;
      }

      .cls-2 {
        fill: #fff;
      }

      .cls-3 {
        fill: #f03232;
      }
    </style>
  </defs>
  <g>
    <polygon class="cls-2" points="162.08 19.85 160.09 19.85 169.03 9.93 160.09 0 149.91 0 149.91 19.85 177.96 19.85 172.66 13.97 162.08 19.85"/>
    <polygon class="cls-2" points="177.96 0 162.08 0 172.66 5.88 177.96 0"/>
  </g>
  <g>
    <g>
      <polygon class="cls-1" points="172.66 13.97 177.96 19.85 179.94 19.85 179.94 13.97 172.66 13.97"/>
      <polygon class="cls-1" points="169.03 9.93 160.09 19.85 162.08 19.85 172.66 13.97 169.03 9.93"/>
      <polygon class="cls-1" points="177.96 0 172.66 5.88 179.94 9.93 179.94 0 177.96 0"/>
      <polygon class="cls-3" points="169.03 9.93 172.66 13.97 179.94 13.97 179.94 9.93 172.66 5.88 169.03 9.93"/>
    </g>
    <polygon class="cls-1" points="162.08 0 160.09 0 169.03 9.93 172.66 5.88 162.08 0"/>
    <polygon class="cls-2" points="179.94 13.97 187.22 13.97 179.94 9.93 179.94 13.97"/>
  </g>
  <g>
    <path class="cls-2" d="m127.01,4.93V0h-14.79v14.79c0,2.72,2.21,4.93,4.93,4.93h9.86v-4.93h-9.86v-2.71h8.87v-4.44h-8.87v-2.71h9.86Z"/>
    <path class="cls-2" d="m32.06,4.93V0h-14.79v14.79c0,2.72,2.21,4.93,4.93,4.93h9.86v-4.93h-9.86v-2.71h8.87v-4.44h-8.87v-2.71h9.86Z"/>
    <path class="cls-2" d="m49.33,4.93V0h-9.86c-2.72,0-4.93,2.21-4.93,4.93v9.86c0,2.72,2.21,4.93,4.93,4.93h9.86v-4.93h-9.86V4.93h9.86Z"/>
    <path class="cls-2" d="m14.79,4.93V0H4.93C2.21,0,0,2.21,0,4.93v9.86c0,2.72,2.21,4.93,4.93,4.93h9.86v-4.93H4.93V4.93h9.86Z"/>
    <path class="cls-2" d="m80.18,0h-6.16c-2.72,0-4.93,2.21-4.93,4.93v14.79h4.93v-5.18h6.16v5.18h4.93V4.93C85.11,2.21,82.9,0,80.18,0Zm0,10.11h-6.16v-5.18h6.16v5.18Z"/>
    <path class="cls-2" d="m66.11,4.93V0h-9.37c-2.72,0-4.93,2.21-4.93,4.93v2.46c0,2.72,2.21,4.93,4.93,4.93h4.93v2.47h-9.86v4.93h9.86c2.72,0,4.93-2.21,4.93-4.93v-2.46c0-2.72-2.21-4.93-4.93-4.93h-4.93v-2.46h9.37Z"/>
    <path class="cls-2" d="m104.85,0h-17.27s0,19.72,0,19.72h4.93V4.93h3.7v14.79h4.93V4.93h3.7v14.79h4.93V4.91c-.01-2.71-2.2-4.9-4.91-4.91Z"/>
    <polygon class="cls-2" points="146.73 15.66 141.8 9.86 146.73 4.06 146.73 0 142.79 0 138.1 5.51 133.42 0 129.48 0 129.48 4.06 134.41 9.86 129.48 15.66 129.48 19.72 133.42 19.72 138.1 14.21 142.79 19.72 146.73 19.72 146.73 15.66"/>
  </g>
</svg>