<svg id="Layer_1" data-name="Layer 1" xmlns="http://www.w3.org/2000/svg" viewBox="0 0 31.22 22.85"><defs><style>.cls-1{fill:#f03232;}.cls-2{fill:#41464b;}.cls-3{fill:#fff;}</style></defs><rect class="cls-1" width="22.85" height="22.85"/><polygon class="cls-2" points="14.47 16.08 20.56 22.85 22.85 22.85 22.85 16.08 14.47 16.08"/><polygon class="cls-2" points="10.28 11.42 0 22.85 2.29 22.85 14.47 16.08 10.28 11.42"/><polygon class="cls-2" points="20.56 0 14.47 6.77 22.85 11.42 22.85 0 20.56 0"/><polygon class="cls-3" points="10.28 11.42 14.47 16.08 22.85 16.08 22.85 11.42 14.47 6.77 10.28 11.42"/><polygon class="cls-2" points="2.29 0 0 0 10.28 11.42 14.47 6.77 2.29 0"/><polygon class="cls-1" points="22.85 16.08 31.23 16.08 22.85 11.42 22.85 16.08"/></svg>