<?xml version="1.0" encoding="utf-8"?>
<!-- Generator: Adobe Illustrator 22.0.0, SVG Export Plug-In . SVG Version: 6.00 Build 0)  -->
<svg version="1.1" id="Layer_1" xmlns="http://www.w3.org/2000/svg" xmlns:xlink="http://www.w3.org/1999/xlink" x="0px" y="0px"
	 viewBox="0 0 257.5 56.2" style="enable-background:new 0 0 257.5 56.2;" xml:space="preserve">
<style type="text/css">
	.st0{fill:#B4B7BC;}
	.st1{fill:#B42E32;}
</style>
<polygon class="st0" points="186.2,56.3 180.6,56.3 205.9,28.1 180.6,0 0,0 0,56.2 231.2,56.3 216.2,39.6 "/>
<polygon class="st0" points="231.2,0 186.2,0 216.2,16.7 "/>
<polygon class="st1" points="216.2,39.6 231.2,56.3 236.8,56.3 236.8,39.6 "/>
<polygon class="st1" points="205.9,28.1 180.6,56.3 186.2,56.3 216.2,39.6 "/>
<polygon class="st1" points="231.2,0 216.2,16.7 236.8,28.1 236.8,0 "/>
<polygon class="st1" points="186.2,0 180.6,0 205.9,28.1 216.2,16.7 "/>
<polygon class="st0" points="236.8,39.6 257.5,39.6 236.8,28.1 "/>
</svg>
