<svg id="Layer_1" data-name="Layer 1" xmlns="http://www.w3.org/2000/svg" viewBox="0 0 250 89.11"><defs><style>.cls-1{fill:#cdcfd2;}</style></defs><path class="cls-1" d="M136.26,16.78h8.39v-4.2h-8.39v-2.3h7.55V6.5h-7.55V4.19h8.39V0H132.07V12.58A4.2,4.2,0,0,0,136.26,16.78Z"/><path class="cls-1" d="M40.78,16.78h8.39v-4.2H40.78V4.19h8.39V0H40.78a4.2,4.2,0,0,0-4.2,4.19v8.39A4.2,4.2,0,0,0,40.78,16.78Z"/><path class="cls-1" d="M99.56,12.37h5.24v4.41H109V4.19A4.2,4.2,0,0,0,104.8,0H99.56a4.19,4.19,0,0,0-4.19,4.19V16.78h4.19Zm0-8.18h5.24V8.6H99.56Z"/><path class="cls-1" d="M93.25,12.58V10.49a4.19,4.19,0,0,0-4.19-4.2H84.87V4.19h8V0h-8a4.2,4.2,0,0,0-4.2,4.19v2.1a4.2,4.2,0,0,0,4.2,4.2h4.19v2.09H80.67v4.2h8.39A4.19,4.19,0,0,0,93.25,12.58Z"/><path class="cls-1" d="M115.29,4.19h3.15V16.78h4.19V4.19h3.15V16.78H130V4.18A4.19,4.19,0,0,0,125.79,0H111.1V16.78h4.19Z"/><polygon class="cls-1" points="154.09 12.09 158.08 16.78 161.43 16.78 161.43 13.32 157.24 8.39 161.43 3.45 161.43 0 158.08 0 154.09 4.69 150.11 0 146.75 0 146.75 3.45 150.94 8.39 146.75 13.32 146.75 16.78 150.11 16.78 154.09 12.09"/><path class="cls-1" d="M159.91,60.29c14.36-.49,29.86-1,45.59-1.51.58-1.25,1.15-2.42,1.68-3.47C158.47,57.1,107.65,59,92,59.51c1.38-3.09,6-13.38,6.34-14.25l-1.41-.63-9.31,6.79a1.37,1.37,0,0,1-.16-.75c0-3.82,7.22-12.07,16.44-12.07.52-.69.77-1,1-1.37a10.76,10.76,0,0,0-3.12-.46c-8.83,0-16.19,7-17.37,12.54-2.28,1.34-7.82,3.55-10.67,3.55a5.85,5.85,0,0,1-1.08-3.29c4.6-1.17,9.72-3.47,12.06-8,0-.79-.16-3.34-3.63-3.34-3.17,0-10.19,3.14-11.39,9.64a40.6,40.6,0,0,1-5.11.89,29,29,0,0,1,2.48,1.84c.74-.08,1.58-.2,2.47-.35.18,4,2.94,6,3.84,6,3.28,0,7.94-2.55,10.94-4.53a3.52,3.52,0,0,0,3.58,3c.26,0,.7,0,.7,0l4.76-4.6-1.73,2.57c-1,2.22-2.19,4.79-3.2,7-12.63-.21-16.62,7.13-16.62,13.77S74.23,83,75.09,83c4.48,0,9.67-7.85,15.43-20.24,9.36-.35,35-1.28,66.62-2.36a2.63,2.63,0,0,0-1.35,1.29c-3.5,7.63-8.11,19.2-8.11,24.34a5.82,5.82,0,0,0,.13,1.17,7.87,7.87,0,0,0,2.12.29c1.78,0,3.07-1.14,4.13-2.85l-2.62-2.07C153.23,75,156.75,66.77,159.91,60.29ZM81.37,41.51c-1.72,2.52-5,4.21-8.18,5.33C74.68,43.55,79.16,41.16,81.37,41.51Zm2.95,26.62c-4.21,7.94-7.1,10.74-8.56,11.54A23.23,23.23,0,0,1,75,73.45C75,67.61,78.66,62.88,87,62.88,86.11,64.67,85.22,66.43,84.32,68.13Z"/><path class="cls-1" d="M170.48,74.28h0l-12.29,8.6c1-5.39,11.34-12.6,18.29-12.39l-.29-2.17c-.45,0-.89,0-1.34,0-8,0-20.1,7.58-20.1,15.08,0,1.5,1,3.35,2.52,3.35,1.4,0,7.29-4.83,10.93-7.93l-.89,1.76a18.23,18.23,0,0,0-1.32,5,4.37,4.37,0,0,0,.07.87,4.49,4.49,0,0,0,2.05.48c1.75,0,3.35-1.51,3.86-2l-2-2c.6-1.91,1.61-5,2.66-8.07Z"/><path class="cls-1" d="M188.62,75.16c.5-1.94,1-4,1.52-6h0a3.81,3.81,0,0,0-2.1-.66c-2.48,0-5.07,2.43-7.23,5.14a14.39,14.39,0,0,0,1.07-4.21,4.49,4.49,0,0,0-.07-.87,4.54,4.54,0,0,0-2.05-.48,3.76,3.76,0,0,0-2.26.73l.44,3.25c-.93,3-3.17,9.62-4.68,14l3.51-.13s.74-2.62,1.36-4.59c.58-1.78,4.84-7.4,8.2-9-.8,1.88-3,9.42-3,12.44a2.22,2.22,0,0,0,.15.87,5,5,0,0,0,2.1.47,3.71,3.71,0,0,0,1.72-.46l-.26-4.34c.59-1.77,4.84-7.4,8.2-9-.79,1.83-2.9,9.07-2.9,12.08a2.1,2.1,0,0,0,.16.87,4.82,4.82,0,0,0,2.09.48,5.43,5.43,0,0,0,3.66-2L196,81.87c.63-3,2-8.27,3-12.69h0a3.8,3.8,0,0,0-2.09-.66C194,68.52,191,71.9,188.62,75.16Z"/><path class="cls-1" d="M143.22,75.29l-12.29,8.6c1.06-5.56,12-13.07,18.95-12.34l.39-2.06a16,16,0,0,0-2.68-.21c-8,0-20.1,7.58-20.1,15.08,0,1.5,1,3.35,2.52,3.35,1.4,0,7.29-4.83,10.93-7.93l-.89,1.76a17.84,17.84,0,0,0-1.32,5,4.31,4.31,0,0,0,.07.86,4.47,4.47,0,0,0,2,.48c1.76,0,3.36-1.51,3.86-2l-2-2c.6-1.91,1.61-5,2.66-8.07Z"/><path class="cls-1" d="M249,76.3c-1.44,1.18-8.17,4-11.41,4a6,6,0,0,1-1.09-3.41c4.44-.94,9.56-3,12.07-7.9,0-.79-.17-3.33-3.63-3.33-3.14,0-10.08,3.08-11.37,9.48a37.54,37.54,0,0,1-4.2.59,2.1,2.1,0,0,0,1.32,2c.75-.06,1.67-.14,2.68-.27.08,4.18,2.93,6.3,3.86,6.3,4.08,0,10.32-4,12.8-5.83ZM245.15,69c-1.83,2.68-5.05,4.31-8.17,5.3C238.49,71,242.94,68.64,245.15,69Z"/><path class="cls-1" d="M231.64,67.43c-4.17,0-7.18,2.35-9.27,5l1.22-5L221,66.55c-1.44,4.21-4.09,11.72-5.07,14.83a6,6,0,0,0-.12,3.17,4,4,0,0,0,1.86.44c1.75,0,3.36-1.51,3.86-2l-2.07-1.89c.12-.39.28-.86.47-1.38,1.06-3.21,5.78-7.65,9-8.63.1.85.17,1.72.19,2.39l2.89-.11A58.82,58.82,0,0,0,231.64,67.43Z"/><path class="cls-1" d="M215.7,69.05a4.05,4.05,0,0,0-3.33-1.42c-1.32.66-5.46,3.73-7,4.91,2-5.83,5.61-12.44,8.1-17.46l-3.52.13c-4,7.81-9.79,21.37-9.79,26.61a5,5,0,0,0,.68,3,9.64,9.64,0,0,0,2.27.18c6.52,0,13.72-5.25,13.72-12.59A5,5,0,0,0,215.7,69.05ZM203.45,81.81a40.41,40.41,0,0,1,1.16-6.45l8.25-4.51a.83.83,0,0,1,.41.25,2,2,0,0,1,.34,1.26C213.61,77.94,209,81.81,203.45,81.81Z"/><path class="cls-1" d="M130.71,41.16c.11.85.17,1.72.2,2.39l2.88-.11c0-2.33-.35-5.91-.35-5.91-4.18,0-7.19,2.35-9.27,5l1.22-5-2.64-.89c-1.44,4.21-4.09,11.72-5.07,14.83a6,6,0,0,0-.12,3.17,4,4,0,0,0,1.86.44c1.76,0,3.36-1.51,3.86-2l-2.07-1.89c.12-.39.29-.86.47-1.38C122.74,46.58,127.46,42.14,130.71,41.16Z"/><path class="cls-1" d="M141.23,51c0,1.25.62,2.57,1.5,2.84,4.19-.69,9.05-3.74,12.42-7.44a23.75,23.75,0,0,0-1,3.21,9.66,9.66,0,0,0-.19,3.89,7.39,7.39,0,0,0,2.12.29c1.77,0,3.06-1.13,4.13-2.84l-2.63-2.08c2-8.58,6.3-18,9.74-24.79l-2.84-1.44c-1.94,3.82-4.14,8.48-6.07,13.38C152,35.27,141.23,41.13,141.23,51Zm15.55-10.64h0c-1.55,4-8.3,8.55-12.27,9.91A13.4,13.4,0,0,1,157.29,38.9Z"/><path class="cls-1" d="M139.55,36c-1.84,3-5.48,9.3-5.48,13.29a6.65,6.65,0,0,0,2.05,5.14c1.31,0,3.47-.9,4-3.91l-2.91-.35a3.42,3.42,0,0,1-.08-.75c0-3.56,3-8.37,5.11-11.74Z"/><path class="cls-1" d="M161.21,49.59c0,1.49.95,3.34,2.52,3.34,1.4,0,7.29-4.83,10.93-7.93l-.89,1.76a17.89,17.89,0,0,0-1.33,5,4.49,4.49,0,0,0,.07.87,4.61,4.61,0,0,0,2.05.47c1.76,0,3.36-1.5,3.86-2l-2-2c.61-1.91,1.62-5,2.66-8.07l-2.11-.5-12.28,8.6c1.06-5.56,12-13.07,18.95-12.34l.38-2.06a15.89,15.89,0,0,0-2.68-.21C173.28,34.5,161.21,42.08,161.21,49.59Z"/><path class="cls-1" d="M182.66,52.31c4.18-.68,9-3.74,12.42-7.44a23.75,23.75,0,0,0-1,3.21,9.82,9.82,0,0,0-.2,3.89,7.87,7.87,0,0,0,2.13.3c1.77,0,3.06-1.14,4.12-2.85l-2.62-2.07c2-8.59,6.29-18,9.73-24.8l-2.84-1.44c-1.94,3.82-4.13,8.48-6.07,13.38-6.38-.71-17.16,5.14-17.16,15C181.16,50.72,181.78,52,182.66,52.31ZM197.22,37.4c-.18.48-.35,1-.51,1.43h0c-1.55,4-8.3,8.55-12.26,9.92A13.41,13.41,0,0,1,197.22,37.4Z"/><path class="cls-1" d="M108.29,77.45l.14-.41a17.87,17.87,0,0,0,1.32-5,4.49,4.49,0,0,0-.07-.87,4.47,4.47,0,0,0-2-.48,3.76,3.76,0,0,0-2.26.73l.43,3.25c-.5,1.58-1.37,4.23-2.3,7-2.19,1.36-8.59,4-11.55,4a5.85,5.85,0,0,1-1.08-3.29c4.6-1.17,9.72-3.47,12.07-8,0-.79-.17-3.34-3.64-3.34s-11.57,3.77-11.57,11.6c0,4.28,2.93,6.45,3.87,6.45,3.27,0,8-2.56,11-4.54l-1.43,4.19,3.52-.13S105.38,86,106,84c.58-1.78,6-7.42,9.5-9-.8,1.87-3,9.43-3,12.45a2.1,2.1,0,0,0,.16.87,4.9,4.9,0,0,0,2.09.47,5.43,5.43,0,0,0,3.66-2l-2.23-1.95c.63-3,2-8.63,3.12-13.05h0a3.81,3.81,0,0,0-2.1-.66C114.39,71.16,111,74.31,108.29,77.45Zm-8.74-3.09c-1.72,2.52-5,4.38-8.3,5.63C92.61,76.54,97.27,74,99.55,74.36Z"/><path class="cls-1" d="M31.42,34.65c0-4.76,24.93-16.75,37-16.75a8.52,8.52,0,0,1,3.62.58c-.95,1.68-3.7,5.57-5.17,7.86-1.73,2.71,2.41,3.27,2.41,3.27,1.21-1.56,7.16-10.1,7.16-12.13a4,4,0,0,0-.54-.7h2.63v-4.2H70.17V4.19h8.39V0H70.17A4.19,4.19,0,0,0,66,4.19v8.39a4.14,4.14,0,0,0,.34,1.66c-.78.08-1.6.18-2.46.32v-2H55.47v-2.3H63V6.5H55.47V4.19h8.39V0H51.28V12.58a4.2,4.2,0,0,0,3.57,4.15C42.11,20.64,27.6,28.28,27.6,34.78c0,9.89,37.09,14.12,37.09,24.32,0,9.73-28.95,21.79-44.88,21.79-7.89,0-13.61-2.59-15.36-5.26,2.25-5.16,12.42-16.94,23.22-17.8,1.34-.11,2-2.5,1.43-3.49-15.77,0-28,16.28-29.1,21.47,1.22,4,7.51,8.91,20.05,8.91,14.66,0,48.46-11.23,48.46-25.75C68.51,45.69,31.42,40.61,31.42,34.65Z"/><polygon class="cls-1" points="141.26 32.56 144.32 34.61 146.38 31.97 143.33 29.91 141.26 32.56"/><path class="cls-1" d="M98.43,52.76c0,1.92.84,2.49,1.63,2.49,3.73,0,8.54-4.56,12.12-9L111,49.06A17.87,17.87,0,0,0,109.68,54a4.49,4.49,0,0,0,.07.87,4.47,4.47,0,0,0,2,.48c1.76,0,3.36-1.51,3.86-2l-2-1.95c.93-3,2.83-8.62,4.35-13L114.91,37c-2.21,6-8.83,12.82-13,14.43.38-2.59,5.5-9.3,7.53-12.49-.24-.95-1.3-1.38-2.63-1.72C105.27,39.35,98.43,47.72,98.43,52.76Z"/></svg>